# xmcd
#
# Track frame offsets: 
#        150
#        13080
#        28335
#        43635
#        56302
#        70442
#        83937
#        99302
#        113950
#        126804
#        140692
#        154327
#        166485
#        179452
#        192005
#        207842
#
# Disc length: 2955 seconds
#
# Revision: 1
# Processed by: cddbd v1.5.1PL0 Copyright (c) Steve Scherf et al.
# Submitted via: ExactAudioCopy v0.90b4
#
DISCID=e30b8910
DTITLE=Various Artist - The Blues - The Best Of 1920-1996 [CD1] Pre-War Bl
DTITLE=ues [Sony][Canada]
DYEAR=2000
DGENRE=Blues
TTITLE0=Blind Lemon Jefferson - Black Snake Moan [1927]
TTITLE1=Mississippi John Hurt - Frankie [1928]
TTITLE2=Blind Willie Johnson - Mother's Children Have A Hard Time [192
TTITLE2=8]
TTITLE3=Roosevelt Sykes - Roosvelt Blues [1929]
TTITLE4=Barbeque Bob - Me And My Whiskey [1929]
TTITLE5=Georgia Cotton Pickers - Diddle-Da-Diddle [1930]
TTITLE6=Lonnie Johnson - Got The Blues For Murder Only [1930]
TTITLE7=Mississippi Sheiks - Sitting On Top Of The World [1930]
TTITLE8=Bo Carter - Pigmeat Is What I Crave [1931]
TTITLE9=Peetie Wheatstraw - Police Station Blues [1932]
TTITLE10=Blind Willie McTell - B and O Blues No.2 (#1) [1933]
TTITLE11=Charley Patton - Revenue Man Blues [1935]
TTITLE12=Memphis Jug Band - Rukus Juice And Chittlin' [1934]
TTITLE13=Tampa Red and Georgia Tom - Dead Cats On The Line [1934]
TTITLE14=Leroy Carr and Scrapper Blackwell - Blues Before Sunrise [1934]
TTITLE15=Bumble Bee Slim - I Keep On Drinking (To Drive Mt Blues Away)
TTITLE15=Pt.2 [1935]
EXTD=
EXTT0=
EXTT1=
EXTT2=
EXTT3=
EXTT4=
EXTT5=
EXTT6=
EXTT7=
EXTT8=
EXTT9=
EXTT10=
EXTT11=
EXTT12=
EXTT13=
EXTT14=
EXTT15=
PLAYORDER=
